<?xml version="1.0" encoding="UTF-8"?> <svg xmlns="http://www.w3.org/2000/svg" width="383" height="291" viewBox="0 0 383 291" fill="none"><g clip-path="url(#clip0_511_244)"><g opacity="0.9"><path opacity="0.9" d="M81.9305 156.441H93.0482V121.831L118.22 156.441H130.979L103.971 119.316L130.233 82.5137H117.475L93.0482 116.858V82.5137H81.9305V116.858L57.5041 82.5137H44.7458L71.008 119.316L44 156.441H56.7582L81.9305 121.831V156.441Z" fill="#004D3A"></path><path opacity="0.9" d="M247.927 134.81H273.867V156.441H284.985V103.465H273.867V124.242H247.927V103.465H236.809V156.441H247.927V134.81Z" fill="#004D3A"></path><path opacity="0.9" d="M266.27 177.877H284.706V220.285H295.837V177.877H314.273V167.309H266.27V177.877Z" fill="#004D3A"></path><path opacity="0.9" d="M170.446 125.015V156.441H181.563V103.465H178.913L143.805 134.591V103.465H132.688V156.441H134.994L170.446 125.015Z" fill="#004D3A"></path><path opacity="0.9" d="M130.438 167.309H130.415H127.547L106.218 202.45L84.9006 167.309H82.0323H82.0093V167.424L72.4062 220.285H83.3517L88.2049 192.793L104.566 220.285H107.881L124.242 192.793L129.096 220.285H140.041L130.438 167.424V167.309Z" fill="#004D3A"></path><path opacity="0.9" d="M187.99 172.235C183.4 167.621 177.032 165.451 170.355 165.451C162.976 165.601 155.949 168.654 150.782 173.955C145.616 179.255 142.723 186.381 142.723 193.803C142.723 201.224 145.616 208.35 150.782 213.651C155.949 218.951 162.976 222.004 170.355 222.155C177.032 222.155 183.274 220.112 187.99 215.371V220.285H199.118V167.309H187.99V172.235ZM170.849 211.679C167.321 211.726 163.858 210.719 160.902 208.783C157.946 206.846 155.629 204.071 154.247 200.806C152.864 197.543 152.478 193.939 153.138 190.455C153.797 186.97 155.473 183.762 157.951 181.237C160.43 178.712 163.599 176.985 167.055 176.277C170.513 175.569 174.101 175.91 177.364 177.258C180.627 178.605 183.419 180.899 185.382 183.846C187.345 186.794 188.393 190.261 188.391 193.809C188.419 198.517 186.586 203.043 183.298 206.394C180.008 209.744 175.53 211.645 170.849 211.679Z" fill="#004D3A"></path><path opacity="0.9" d="M338.151 137.706C338.149 132.867 336.283 128.218 332.947 124.731C329.61 121.245 325.06 119.193 320.252 119.005H306.863V103.477H295.746V118.959V129.526V145.885V156.442H320.252C325.066 156.253 329.621 154.196 332.958 150.703C336.296 147.209 338.157 142.55 338.151 137.706ZM318.932 145.885H306.863V129.526H318.932C321.09 129.526 323.16 130.388 324.685 131.922C326.211 133.456 327.068 135.537 327.068 137.706C327.068 139.875 326.211 141.956 324.685 143.49C323.16 145.024 321.09 145.885 318.932 145.885Z" fill="#004D3A"></path><path opacity="0.9" d="M238.62 165.451C231.953 165.451 225.677 167.527 220.996 172.235V167.309H209.867V246H220.996V215.371C223.344 217.613 226.11 219.366 229.134 220.531C232.159 221.694 235.382 222.246 238.62 222.154C242.37 222.23 246.098 221.553 249.585 220.163C253.072 218.772 256.248 216.696 258.928 214.056C261.606 211.416 263.735 208.264 265.187 204.786C266.641 201.309 267.389 197.575 267.389 193.803C267.389 190.031 266.641 186.297 265.187 182.819C263.735 179.342 261.606 176.19 258.928 173.55C256.248 170.91 253.072 168.833 249.585 167.443C246.098 166.052 242.37 165.376 238.62 165.451ZM238.138 211.679C234.61 211.725 231.15 210.714 228.195 208.777C225.24 206.839 222.925 204.063 221.544 200.799C220.163 197.534 219.778 193.932 220.439 190.447C221.101 186.964 222.777 183.756 225.255 181.232C227.734 178.709 230.904 176.984 234.36 176.276C237.817 175.569 241.404 175.911 244.667 177.258C247.93 178.606 250.721 180.9 252.683 183.847C254.646 186.795 255.693 190.262 255.691 193.809C255.719 198.518 253.886 203.046 250.594 206.398C247.302 209.749 242.821 211.649 238.138 211.679Z" fill="#004D3A"></path><path opacity="0.9" d="M229.866 141.525C229.866 136.207 226.837 132.042 222.11 129.504C224.108 128.281 225.764 126.566 226.919 124.522C228.076 122.477 228.695 120.17 228.719 117.817C228.719 108.588 220.171 101.666 208.663 101.666C198.532 101.666 190.191 107.942 188.345 114.968L198.291 117.679C199.06 114.783 202.468 111.911 208.618 111.911C214.767 111.911 217.797 115.014 217.797 118.487C217.797 121.959 214.951 124.451 209.215 124.451H202.33V134.638H208.572C214.905 134.638 218.898 136.945 218.898 140.995C218.898 144.456 216.017 148.436 208.572 148.436C205.98 148.545 203.426 147.785 201.312 146.275C199.198 144.765 197.643 142.591 196.892 140.095L187.438 143.314C189.859 151.389 197.064 158.311 208.572 158.311C222.409 158.311 229.866 150.212 229.866 141.525Z" fill="#004D3A"></path><path opacity="0.9" d="M327.551 165.98C326.255 165.978 324.988 166.363 323.909 167.085C322.831 167.806 321.99 168.833 321.491 170.037C320.993 171.239 320.862 172.564 321.112 173.842C321.362 175.12 321.984 176.296 322.899 177.218C323.814 178.142 324.98 178.771 326.25 179.028C327.521 179.283 328.838 179.156 330.036 178.659C331.234 178.163 332.258 177.319 332.98 176.238C333.702 175.156 334.088 173.883 334.091 172.58C334.085 170.836 333.395 169.164 332.17 167.929C330.946 166.693 329.286 165.993 327.551 165.98ZM327.551 177.91C326.502 177.912 325.476 177.602 324.602 177.017C323.729 176.433 323.049 175.602 322.646 174.628C322.243 173.653 322.136 172.582 322.339 171.548C322.542 170.512 323.046 169.562 323.787 168.815C324.528 168.069 325.472 167.559 326.501 167.353C327.53 167.146 328.596 167.251 329.566 167.655C330.534 168.058 331.363 168.74 331.946 169.618C332.529 170.495 332.84 171.525 332.84 172.58C332.837 173.992 332.28 175.348 331.29 176.35C330.299 177.352 328.956 177.92 327.551 177.933V177.91Z" fill="#004D3A"></path><path opacity="0.9" d="M330.546 171.137C330.546 169.984 329.753 168.83 327.768 168.83H324.969V176.076H326.46V173.352H327.298L329.237 176.076H330.958L328.859 173.191C329.331 173.096 329.757 172.839 330.065 172.465C330.372 172.091 330.541 171.623 330.546 171.137ZM327.551 172.291H326.46V170.076H327.607C328.756 170.076 328.973 170.654 328.973 171.23C328.973 171.807 328.537 172.291 327.551 172.291Z" fill="#004D3A"></path><path opacity="0.9" d="M208.069 89.6551C208.069 89.6551 207.691 89.9895 206.28 89.9895C204.869 89.9895 204.272 88.536 203.985 86.344C203.41 80.5054 203.139 74.6406 203.17 68.7736C203.17 60.3172 202.585 49.9227 208.081 49.3689C208.251 48.3864 208.773 47.5007 209.55 46.8798C210.326 46.2589 211.301 45.9459 212.292 46.0002C215.928 46.0002 215.241 52.7491 215.251 68.7736C215.251 84.9942 213.565 91.0855 211.11 91.0855C208.654 91.0855 208.069 89.6551 208.069 89.6551Z" fill="#0D9900"></path><path opacity="0.9" d="M224.84 91.675C223.636 89.5291 225.517 84.4991 233.572 76.4235C241.626 68.3479 246.032 64.9444 248.006 67.4249C248.366 67.9734 248.565 68.6142 248.578 69.2722C248.59 69.9301 248.415 70.578 248.074 71.1396C248.787 71.741 249.285 72.5602 249.492 73.4723C249.699 74.3846 249.604 75.3399 249.222 76.1928C247.982 79.4346 240.192 84.3491 236.6 88.8139C233.01 93.2786 230.187 97.0049 227.204 95.2399C226.803 94.9679 226.501 94.5719 226.344 94.1119C226.186 93.6519 226.183 93.1527 226.332 92.6902C225.748 92.5053 225.229 92.1524 224.84 91.675Z" fill="#0D9900"></path><path opacity="0.9" d="M170.043 69.2687C174.38 63.881 180.622 73.2603 180.622 73.2603C180.622 73.2603 184.832 74.1717 189.973 81.7744C195.113 89.377 193.414 92.342 193.414 92.342C193.4 92.9186 193.243 93.4823 192.956 93.982C192.669 94.4817 192.262 94.9014 191.773 95.2031C191.218 95.5015 190.599 95.6634 189.969 95.6754C189.339 95.6875 188.715 95.5493 188.149 95.2723C188.149 95.2723 183.157 90.6576 177.146 84.5547C171.134 78.4519 167.176 72.822 170.043 69.2687Z" fill="#0D9900"></path></g></g><defs><clipPath id="clip0_511_244"><rect width="295" height="200" fill="white" transform="translate(44 46)"></rect></clipPath></defs></svg> 